<svg version="1.1" id="Layer_1" xmlns="http://www.w3.org/2000/svg" xmlns:xlink="http://www.w3.org/1999/xlink" x="0px" y="0px" viewBox="0 0 500 500" style="width: 185px;" xml:space="preserve" data-imageid="chef-49" imageName="Chef" class="illustrations_image">
<style type="text/css">
	.st0_chef-49{fill:#725858;}
	.st1_chef-49{fill:#093F68;}
	.st2_chef-49{fill:#68E1FD;}
	.st3_chef-49{fill:#FFC9B0;}
	.st4_chef-49{fill:#FFFFFF;}
	.st5_chef-49{fill:#FFBC0E;}
</style>
<g id="character_chef-49">
	<path class="st0_chef-49" d="M153.6,285.2c0.8,6.8,4,12.9,10.9,16.5c6.1,3.2,13.5,1.9,20.2,0.6c-3.2,2.9-6.4,6.1-7.9,10.1&#10;&#9;&#9;c-5.6,14.1,13.6,25.9,25.1,27.9c10,1.7,20.3-1.1,28.2-7.6c-0.3,0.3,9,6.5,10,6.9c3.9,1.5,8.1,2.3,12.3,2.2c5.2,0,11.8,1.5,16.8-0.9&#10;&#9;&#9;c5.5-2.7,11.9-11.1,13.3-17.8c1.1-5.1,0-14.1-5-16c8.2,3,17.7-0.4,23.1-8.1c6-8.6,6.5-24.2,1.3-33.5s-10.8-21.9-20.6-24.9&#10;&#9;&#9;c-13-3.9-25.5-10.1-38.8-13.2c-12.5-2.9-32.7-3.5-44.2,3.1c-10.8,6.2-23.4,12.4-32.2,21.2C158.4,259,152.3,273.3,153.6,285.2z"/>
	<path class="st1_chef-49" d="M261.6,344.1c-1.8,0-3.5-0.1-5.2-0.3c-1.5-0.1-2.9-0.2-4.2-0.2c-4.4,0.1-8.9-0.7-13-2.4&#10;&#9;&#9;c-3.3-1.9-6.4-3.9-9.4-6.2c-8.1,6.2-18.4,8.8-28.4,7.1c-8.7-1.5-20.5-7.9-25.4-16.6c-2.5-4.2-2.9-9.3-1.1-13.8&#10;&#9;&#9;c1-2.4,2.4-4.7,4.2-6.6c-5.6,0.8-10.9,0.7-15.7-1.8c-6.8-3.6-10.9-9.8-11.8-17.9l0,0c-1.5-13.1,5.5-27.8,12.8-35.1&#10;&#9;&#9;c7.6-7.5,17.5-13,27-18.4c1.9-1.1,3.8-2.1,5.6-3.2c12.6-7.2,34.1-5.9,45.6-3.3c7.8,1.8,15.4,4.7,22.8,7.5c5.3,2,10.7,4.1,16.1,5.7&#10;&#9;&#9;c9.2,2.8,14.7,12.9,19.5,21.8c0.7,1.4,1.5,2.7,2.2,4c5.6,10.1,5,26.3-1.4,35.5c-4.3,6.4-11.6,10.2-19.3,10&#10;&#9;&#9;c1.9,4.2,2.4,8.9,1.5,13.5c-1.5,7.1-8.2,16.1-14.3,19.1C267.2,343.7,264.4,344.2,261.6,344.1z M231.5,331.7&#10;&#9;&#9;c1.3,1.1,8.2,5.7,9.2,6.2c3.7,1.5,7.6,2.2,11.6,2.1c1.4,0,2.9,0.1,4.4,0.2c4.1,0.3,8.3,0.6,11.5-1c5.1-2.5,11-10.4,12.3-16.6&#10;&#9;&#9;c1-4.6,0-12.5-3.9-13.9l0,0c-1-0.3-1.5-1.3-1.2-2.3s1.3-1.5,2.3-1.2c0.1,0,0.1,0,0.2,0.1l0,0c7.4,2.7,16.1-0.4,21-7.5&#10;&#9;&#9;c5.6-8,6.1-22.8,1.2-31.6c-0.7-1.3-1.5-2.7-2.2-4c-4.5-8.3-9.5-17.7-17.3-20c-5.5-1.7-11-3.8-16.4-5.8c-7.2-2.8-14.7-5.6-22.3-7.4&#10;&#9;&#9;c-13.4-3.1-32.5-3.1-42.9,2.9c-1.8,1.1-3.7,2.1-5.6,3.2c-9.4,5.2-19,10.6-26.2,17.8c-6.8,6.7-13,20.5-11.7,32.1l0,0&#10;&#9;&#9;c0.8,7,4.1,12.1,9.9,15.1c5.4,2.8,12.1,1.8,19,0.4c1-0.2,1.9,0.4,2.1,1.4c0.1,0.6-0.1,1.3-0.6,1.7c-2.8,2.5-6,5.6-7.5,9.4&#10;&#9;&#9;c-1.4,3.5-1.1,7.5,0.9,10.7c4.1,7.4,14.9,13.4,22.8,14.8c9.5,1.6,19.2-1.1,26.6-7.2l0,0c0.8-0.6,1.9-0.5,2.6,0.3c0,0,0,0,0,0&#10;&#9;&#9;C231.4,331.6,231.4,331.6,231.5,331.7z"/>
	<path class="st0_chef-49" d="M225.1,152.7h7.8c39.9,0,72.3,32.4,72.3,72.3v25.9l0,0H155.5l0,0v-28.6C155.5,183.9,186.7,152.7,225.1,152.7&#10;&#9;&#9;C225.1,152.7,225.1,152.7,225.1,152.7z"/>
	<path class="st1_chef-49" d="M305.2,252.7H155.5c-1,0-1.8-0.8-1.8-1.8c0,0,0,0,0,0v-28.2c0-40.9,33-71.7,76.7-71.7s76.6,30.8,76.6,71.7&#10;&#9;&#9;v28.2C307,251.9,306.2,252.7,305.2,252.7z M157.3,249.1h146.1v-26.4c0-38.8-31.4-68.1-73-68.1s-73,29.3-73,68.1L157.3,249.1z"/>
	<path class="st2_chef-49 targetColor" d="M299.7,360.9v43.9c0,18.2-14.8,25.3-33.1,25.3h-69v-19.2h-36.5v-50c0-24.5,21-44.4,46.9-44.4h44.8&#10;&#9;&#9;C278.7,316.6,299.7,336.4,299.7,360.9z" style="fill: rgb(118, 255, 198);"/>
	<path class="st1_chef-49" d="M266.6,431.9h-69c-1,0-1.8-0.8-1.8-1.8v-17.4h-34.7c-1,0-1.8-0.8-1.8-1.8v-50c0-25.5,21.9-46.2,48.7-46.2h44.8&#10;&#9;&#9;c26.9,0,48.7,20.7,48.7,46.2v43.9C301.5,422,288.8,431.9,266.6,431.9z M199.4,428.3h67.2c11.7,0,31.2-3.1,31.2-23.5v-43.8&#10;&#9;&#9;c0-23.5-20.2-42.5-45.1-42.5H208c-24.9,0-45.1,19.1-45.1,42.5v48.1h34.7c1,0,1.8,0.8,1.8,1.8c0,0,0,0,0,0L199.4,428.3z"/>
	<path class="st1_chef-49" d="M187.2,430.2L187.2,430.2c-1.1,0-1.9-0.9-1.8-1.9c0,0,0,0,0,0l2.4-58.6c0-1,0.8-1.8,1.8-1.7c0,0,0,0,0.1,0&#10;&#9;&#9;c1,0,1.8,0.9,1.8,1.9l-2.3,58.6C189,429.4,188.2,430.2,187.2,430.2z"/>
	<path class="st1_chef-49" d="M271.3,431.9L271.3,431.9c-1.1,0-1.9-0.9-1.8-1.9c0,0,0,0,0,0c0.4-9.8,0.8-19.1,1.2-28.5s0.8-18.7,1.2-28.5&#10;&#9;&#9;c0-1,0.8-1.8,1.8-1.9c1,0,1.8,0.8,1.9,1.8c0,0.1,0,0.1,0,0.2c-0.4,9.8-0.8,19.1-1.2,28.5s-0.8,18.7-1.2,28.5&#10;&#9;&#9;C273.1,431.1,272.3,431.9,271.3,431.9z"/>
	<path class="st2_chef-49 targetColor" d="M191.4,339.4c0,0-8.3,7.9-8.3,23.1c0,9.1,2.9,18.1,8.3,25.5" style="fill: rgb(118, 255, 198);"/>
	<path class="st1_chef-49" d="M191.4,389.8c-0.5,0-1.1-0.2-1.4-0.7c-5.6-7.7-8.7-17-8.7-26.6c0-15.8,8.5-24.1,8.8-24.4&#10;&#9;&#9;c0.7-0.7,1.9-0.7,2.6,0.1c0.7,0.7,0.7,1.9-0.1,2.6c-0.1,0.1-7.7,7.7-7.7,21.8c0.1,8.7,2.8,17.2,7.9,24.3c0.7,0.8,0.6,1.9-0.2,2.6&#10;&#9;&#9;C192.3,389.7,191.8,389.8,191.4,389.8L191.4,389.8z"/>
	<path class="st2_chef-49 targetColor" d="M269.5,339.4c0,0,8.3,7.9,8.3,23.1c0,9.1-2.9,18.1-8.3,25.5" style="fill: rgb(118, 255, 198);"/>
	<path class="st1_chef-49" d="M269.5,389.8c-1,0-1.8-0.8-1.9-1.8c0-0.5,0.1-0.9,0.4-1.2c5.1-7.1,7.8-15.6,7.9-24.3c0-14.2-7.6-21.7-7.7-21.8&#10;&#9;&#9;c-0.7-0.7-0.8-1.8-0.1-2.6c0.7-0.7,1.8-0.8,2.6-0.1c0.4,0.4,8.9,8.6,8.9,24.4c0,9.6-3,18.9-8.7,26.6&#10;&#9;&#9;C270.5,389.5,270,389.8,269.5,389.8z"/>
	<rect x="219.3" y="302.9" class="st3_chef-49" width="22.3" height="13.7"/>
	<path class="st1_chef-49" d="M241.6,318.4h-22.3c-1,0-1.8-0.8-1.8-1.8l0,0v-13.7c0-1,0.8-1.8,1.8-1.8h22.3c1,0,1.8,0.8,1.8,1.8v13.7&#10;&#9;&#9;C243.4,317.6,242.6,318.4,241.6,318.4z M221.1,314.7h18.7v-10.1h-18.7L221.1,314.7z"/>
	<ellipse class="st3_chef-49" cx="166.7" cy="247.6" rx="21.7" ry="18.7"/>
	<path class="st1_chef-49" d="M166.7,268c-13,0-23.5-9.2-23.5-20.5s10.5-20.5,23.5-20.5s23.5,9.2,23.5,20.5S179.6,268,166.7,268z&#10;&#9;&#9; M166.7,230.7c-11,0-19.9,7.6-19.9,16.9s8.9,16.9,19.9,16.9s19.9-7.6,19.9-16.9S177.6,230.7,166.7,230.7L166.7,230.7z"/>
	<ellipse class="st3_chef-49" cx="293" cy="247.6" rx="21.7" ry="18.7"/>
	<path class="st1_chef-49" d="M293,268c-13,0-23.5-9.2-23.5-20.5s10.5-20.5,23.5-20.5s23.5,9.2,23.5,20.5S306,268,293,268z M293,230.7&#10;&#9;&#9;c-10.9,0-19.8,7.6-19.8,16.9s8.9,16.9,19.8,16.9s19.9-7.6,19.9-16.9S304,230.7,293,230.7L293,230.7z"/>
	<path class="st3_chef-49" d="M291.6,209.9c0.6,1.1,1.1,2.1,1.5,3.2c4,9.4,2.6,20,2.6,30c-0.4,36.1-30.1,65-66.2,64.5&#10;&#9;&#9;c-35.5-0.4-64.1-29.1-64.5-64.5c0-9.7-1.3-19,1.1-28.5c3.2-13.2,10.1-25.1,20-34.4c5.4,8.2,18.1,13.6,27.1,17.1&#10;&#9;&#9;c-2.5-5.8-3.1-12.2-1.9-18.3c-0.4,1.9,5.6,5,6.8,5.8c3.6,2.3,7.6,3.3,11.7,4.4c9.3,2.4,18.8,3.5,28.4,3.4c-2.4-1.3-4.2-3.5-4.9-6.1&#10;&#9;&#9;c-0.7-2.1-1.4-5.1-0.8-7.2c7.9,3,16.3,9,23.2,13.8C282.2,197.5,287.9,203,291.6,209.9z"/>
	<path class="st1_chef-49" d="M230.4,310.2c-37.1,0-67.2-30.1-67.2-67.2v0c0-2.5-0.1-5-0.2-7.5c-0.2-7-0.5-14.2,1.3-21.4&#10;&#9;&#9;c3.3-13.5,10.4-25.8,20.5-35.3c0.4-0.4,0.9-0.6,1.5-0.5c0.5,0.1,1,0.4,1.3,0.8c4.3,6.5,13.4,11.2,22.5,14.9&#10;&#9;&#9;c-1.4-5.1-1.6-10.4-0.6-15.5c0.2-1,1.1-1.7,2.1-1.5c0.9,0.2,1.6,1,1.5,1.9c0.3,0.5,1.4,1.5,5.1,3.6c0.4,0.2,0.7,0.4,0.9,0.6&#10;&#9;&#9;c3.2,2,6.8,3.1,11.2,4.2c7.6,1.9,15.3,3,23.1,3.3c-0.8-1.1-1.4-2.4-1.8-3.7c-0.8-2.3-1.5-5.6-0.9-8.2c0.2-1,1.2-1.6,2.2-1.3&#10;&#9;&#9;c0.1,0,0.1,0,0.2,0.1c7.9,3,16.4,8.9,23.2,13.7l0.4,0.3c7.5,5.3,12.9,11,16.4,17.5l0,0c0.6,1.1,1.1,2.3,1.6,3.4&#10;&#9;&#9;c3.3,7.9,3.1,16.4,2.9,24.6c0,2-0.1,4.1-0.1,6.1C297.6,280.2,267.5,310.2,230.4,310.2L230.4,310.2z M185.9,183&#10;&#9;&#9;c-8.8,8.8-15.1,19.9-18,32.1c-1.6,6.8-1.4,13.4-1.2,20.4c0.1,2.5,0.2,5,0.2,7.6c0.4,35.1,29.2,63.2,64.3,62.7&#10;&#9;&#9;c34.5-0.4,62.3-28.3,62.7-62.7c0-2,0.1-4.1,0.1-6.2c0.2-7.8,0.4-15.9-2.6-23.1c-0.4-1-0.9-2.1-1.5-3.1l0,0&#10;&#9;&#9;c-3.2-6-8.2-11.3-15.3-16.2l-0.4-0.3c-6-4.2-13.3-9.3-20.1-12.4c0.1,1.4,0.4,2.7,0.9,4c0.6,2.1,2,3.9,4,5c0.9,0.4,1.3,1.5,0.9,2.4&#10;&#9;&#9;c-0.3,0.6-0.9,1-1.6,1.1c-9.7,0.1-19.4-1-28.9-3.4c-3.9-1-8.3-2.1-12.3-4.6c-0.2-0.1-0.5-0.3-0.8-0.5c-1.3-0.7-2.6-1.5-3.8-2.4&#10;&#9;&#9;c-0.3,4.5,0.5,9,2.3,13.2c0.4,0.9-0.1,2-1,2.4c-0.4,0.2-0.9,0.2-1.3,0C202.5,195.1,191.7,190.2,185.9,183z"/>
	<path class="st4_chef-49" d="M311.8,112.1c0,18.2-13.3,33.6-31.3,36.2v19.9H177.2v-19.9c-20-3-33.8-21.6-30.9-41.6&#10;&#9;&#9;c3-20,21.6-33.8,41.6-30.9c3.2,0.5,6.3,1.4,9.2,2.6c10.1-17.5,32.5-23.5,50-13.4c5.6,3.2,10.2,7.8,13.4,13.4&#10;&#9;&#9;c18.6-8.1,40.1,0.4,48.2,19C310.8,102.1,311.8,107.1,311.8,112.1z"/>
	<path class="st1_chef-49" d="M280.5,170.1H177.2c-1,0-1.8-0.8-1.8-1.8v0v-18.3c-20.9-3.9-34.6-24.1-30.6-44.9c3.4-18.2,19.3-31.3,37.8-31.3&#10;&#9;&#9;c4.7,0,9.4,0.9,13.9,2.6c11.4-17.9,35.1-23.2,53-11.9c4.8,3,8.8,7.1,11.9,11.9c19.8-7.6,42.1,2.2,49.7,22&#10;&#9;&#9;c7.6,19.8-2.2,42.1-22,49.7c-2.2,0.8-4.4,1.5-6.7,1.9v18.3C282.3,169.2,281.5,170.1,280.5,170.1z M179.1,166.4h99.6v-18.1&#10;&#9;&#9;c0-0.9,0.7-1.7,1.6-1.8c19-2.8,32.2-20.4,29.4-39.4c-2.5-17.1-17.2-29.8-34.5-29.8c-4.8,0-9.5,1-13.9,2.9c-0.8,0.4-1.8,0-2.3-0.8&#10;&#9;&#9;c-9.6-16.6-30.9-22.3-47.5-12.7c-5.3,3-9.7,7.4-12.7,12.7c-0.5,0.8-1.5,1.1-2.3,0.8c-4.4-1.9-9.1-2.9-13.9-2.9&#10;&#9;&#9;c-19.2,0-34.8,15.6-34.8,34.8c0,17.3,12.7,32,29.8,34.4c0.9,0.1,1.6,0.9,1.6,1.8L179.1,166.4z"/>
	<path class="st1_chef-49" d="M265.5,98.7c-1,0-1.8-0.8-1.8-1.8v0c0.3-19.2-15-35.1-34.2-35.4c-19.2-0.3-35.1,15-35.4,34.2&#10;&#9;&#9;c0,0.4,0,0.8,0,1.2c0,1-0.8,1.8-1.8,1.8c-1,0-1.8-0.8-1.8-1.8c0,0,0,0,0,0c-0.3-21.2,16.6-38.7,37.8-39.1&#10;&#9;&#9;c21.2-0.3,38.7,16.6,39.1,37.8c0,0.4,0,0.8,0,1.2C267.3,97.9,266.5,98.7,265.5,98.7z"/>
	<path class="st4_chef-49" d="M170,161.5h117.7c2.9,0,5.3,2.4,5.3,5.3v9.4c0,2.9-2.4,5.3-5.3,5.3H170c-2.9,0-5.3-2.4-5.3-5.3v-9.4&#10;&#9;&#9;C164.7,163.9,167.1,161.5,170,161.5z"/>
	<path class="st1_chef-49" d="M283.4,183.3h-109c-6.3,0-11.5-5.1-11.5-11.5v-0.7c0-6.3,5.1-11.5,11.5-11.5h109c6.3,0,11.5,5.1,11.5,11.5v0.7&#10;&#9;&#9;C294.8,178.2,289.7,183.3,283.4,183.3z M174.4,163.3c-4.3,0-7.8,3.5-7.8,7.8v0.7c0,4.3,3.5,7.8,7.8,7.8h109c4.3,0,7.8-3.5,7.8-7.8&#10;&#9;&#9;v-0.7c0-4.3-3.5-7.8-7.8-7.8H174.4z"/>
	<circle class="st1_chef-49" cx="201" cy="234.5" r="5.8"/>
	<circle class="st1_chef-49" cx="261.2" cy="234.5" r="5.8"/>
	<path class="st1_chef-49" d="M231.7,253.9c-1.9,0-3.8-0.2-5.7-0.5c-1-0.2-1.6-1.1-1.5-2.1c0,0,0,0,0,0c0.2-1,1.1-1.6,2.1-1.5&#10;&#9;&#9;c0.1,0,5.1,0.9,8.7,0.1c0.4-1.7-1.9-7.9-4.9-13.8c-0.5-0.9-0.2-2,0.7-2.5c0.9-0.5,2-0.2,2.5,0.7c0,0,0.1,0.1,0.1,0.1&#10;&#9;&#9;c2.1,3.9,6.6,13.4,5,17.2c-0.4,0.9-1.2,1.6-2.1,1.8C234.9,253.7,233.3,253.9,231.7,253.9z"/>
	<path class="st1_chef-49" d="M231.8,276.4c-16,0-20.7-11.3-20.8-11.4c-0.4-0.9,0.1-2,1-2.4c0.9-0.4,2,0.1,2.4,1c0,0,0,0,0,0&#10;&#9;&#9;c0.3,0.7,6.9,16,34.4,5.5c0.9-0.4,2,0.1,2.4,1c0.4,0.9-0.1,2-1,2.4C242.8,275.3,236.8,276.4,231.8,276.4z"/>
	<path class="st1_chef-49" d="M214.1,222.9h-0.4l-27.2-3.4c-1.6-0.3-2.6-1.8-2.4-3.3c0.2-1.5,1.6-2.5,3.1-2.4l27.2,3.4&#10;&#9;&#9;c1.6,0.2,2.7,1.7,2.5,3.3C216.7,221.9,215.5,222.9,214.1,222.9L214.1,222.9z"/>
	<path class="st1_chef-49" d="M248.1,222.9c-1.6,0-2.9-1.4-2.8-3c0-1.4,1.1-2.6,2.5-2.8l27.2-3.4c1.6-0.1,3,1.1,3.1,2.7&#10;&#9;&#9;c0.1,1.5-0.9,2.8-2.4,3.1l-27.2,3.4L248.1,222.9z"/>
	<path class="st1_chef-49" d="M248.1,417.6c-1,0-1.8-0.8-1.8-1.8l0,0V349l-39.4-31c-0.8-0.6-1-1.7-0.4-2.5c0.6-0.8,1.7-1,2.5-0.4&#10;&#9;&#9;c0,0,0.1,0.1,0.1,0.1l40,31.6c0.4,0.3,0.7,0.9,0.7,1.4v67.6C249.8,416.8,249.1,417.6,248.1,417.6z"/>
	<path class="st1_chef-49" d="M232.8,338c-1,0-1.8-0.8-1.8-1.8c0-0.4,0.2-0.8,0.4-1.2l16.6-18.2c0.7-0.7,1.9-0.7,2.6,0&#10;&#9;&#9;c0.7,0.7,0.7,1.8,0.1,2.5l-16.6,18.2C233.8,337.8,233.3,338,232.8,338z"/>
	<circle class="st1_chef-49" cx="234.9" cy="355.5" r="5"/>
	<circle class="st1_chef-49" cx="234.9" cy="376.8" r="5"/>
	<path class="st2_chef-49 targetColor" d="M284.2,401.1h-71.1v29h67.5c10.5,0,19.1-8.5,19.1-19.1c0,0,0,0,0,0v-9.9" style="fill: rgb(118, 255, 198);"/>
	<path class="st1_chef-49" d="M280.6,431.9h-67.5c-1,0-1.8-0.8-1.8-1.8c0,0,0,0,0,0v-29c0-1,0.8-1.8,1.8-1.8h0h71.1c1,0,1.8,0.8,1.8,1.8&#10;&#9;&#9;s-0.8,1.8-1.8,1.8H215v25.3h65.6c9.5,0,17.2-7.7,17.2-17.2v-9.9c0-1,0.8-1.8,1.8-1.8s1.8,0.8,1.8,1.8v9.9&#10;&#9;&#9;C301.5,422.5,292.2,431.9,280.6,431.9z"/>
	<path class="st2_chef-49 targetColor" d="M178.3,395l69.4,6.2v29h-67.5c-10.5,0-19.1-8.6-19.1-19.1c0,0,0,0,0-0.1v-9.9" style="fill: rgb(118, 255, 198);"/>
	<path class="st1_chef-49" d="M247.7,431.9h-67.5c-11.5,0-20.9-9.4-20.9-20.9v-9.9c0-1,0.8-1.8,1.8-1.8c1,0,1.8,0.8,1.8,1.8v9.9&#10;&#9;&#9;c0,9.5,7.7,17.3,17.3,17.3h65.6v-25.5l-67.7-6c-1-0.1-1.8-1-1.7-2c0,0,0,0,0,0c0.1-1,1-1.7,2-1.7c0,0,0,0,0,0l69.4,6.2&#10;&#9;&#9;c0.9,0.1,1.7,0.9,1.7,1.8v29C249.5,431.1,248.7,431.9,247.7,431.9C247.7,431.9,247.7,431.9,247.7,431.9z"/>
	<path class="st5_chef-49" d="M354.2,310L327,292.7c-5.8-3.7-13.4-2-17.1,3.8l-16.4,25.9c-6.4,10.1-3.4,23.5,6.7,29.9l1,0.7L250.3,433&#10;&#9;&#9;c-1.7,2.6-0.9,6,1.7,7.7s6,0.9,7.7-1.7l0,0l50.9-80.1l1,0.7c10.1,6.4,23.5,3.4,29.9-6.7c0,0,0,0,0,0L358,327&#10;&#9;&#9;C361.7,321.3,360,313.7,354.2,310C354.2,310,354.2,310,354.2,310z M305.8,336.5c-1.1,1.7-3.2,2.1-4.9,1.1s-2.1-3.2-1.1-4.9&#10;&#9;&#9;l19.2-30.2c1.1-1.7,3.3-2.2,4.9-1.1c0.8,0.5,1.4,1.3,1.6,2.2c0.2,0.9,0,1.9-0.5,2.7L305.8,336.5z M312.8,345.1&#10;&#9;&#9;c-1.6-1.1-2.1-3.2-1.1-4.9l19.2-30.2c1.1-1.7,3.3-2.1,4.9-1.1c0.8,0.5,1.4,1.3,1.6,2.2c0.2,0.9,0,1.9-0.5,2.7L317.7,344&#10;&#9;&#9;C316.7,345.7,314.5,346.1,312.8,345.1L312.8,345.1z M348.8,321.4l-19.2,30.2c-1.1,1.7-3.2,2.1-4.9,1.1s-2.1-3.2-1.1-4.9l19.2-30.2&#10;&#9;&#9;c1.1-1.7,3.3-2.1,4.9-1.1c0.8,0.5,1.4,1.3,1.6,2.2C349.5,319.6,349.3,320.6,348.8,321.4L348.8,321.4z"/>
	<path class="st1_chef-49" d="M255,443.1c-3.9,0-7.1-3.2-7.1-7.1c0-1.3,0.4-2.7,1.1-3.8l50.1-78.8c-10.6-6.9-13.7-21.1-6.9-31.8l16.4-25.9&#10;&#9;&#9;c4.1-6.5,12.7-8.4,19.1-4.3l27.2,17.3c6.4,4.1,8.4,12.7,4.2,19.1l-16.5,25.9c-6.8,10.7-20.9,13.9-31.7,7.3L261,439.8&#10;&#9;&#9;C259.7,441.8,257.4,443.1,255,443.1z M320.4,292.3c-0.8,0-1.6,0.1-2.4,0.3c-2.8,0.6-5.3,2.3-6.8,4.8l-16.4,25.9&#10;&#9;&#9;c-5.9,9.4-3.2,21.8,6.2,27.8l1,0.7c0.3,0.2,0.6,0.6,0.7,0.9c0.1,0.4,0,0.8-0.2,1.1l-50.9,80.1c-1.2,1.9-0.6,4.4,1.2,5.6&#10;&#9;&#9;s4.4,0.6,5.6-1.2l0,0l50.9-80.1c0.4-0.7,1.4-0.9,2.1-0.5l1,0.7c9.4,6,21.8,3.2,27.8-6.2l16.5-25.9c3.2-5.1,1.7-11.8-3.3-15l0,0&#10;&#9;&#9;L326.2,294C324.5,292.9,322.5,292.3,320.4,292.3L320.4,292.3z"/>
	<path class="st1_chef-49" d="M302.8,339.6c-2.8,0-5-2.3-5-5.1c0-1,0.3-1.9,0.8-2.7l19.2-30.2c1.5-2.4,4.6-3.1,7-1.6c0,0,0,0,0,0&#10;&#9;&#9;c1.1,0.7,1.9,1.9,2.2,3.2c0.3,1.3,0,2.7-0.7,3.8l-19.2,30.2c-0.7,1.1-1.9,1.9-3.2,2.2C303.6,339.6,303.2,339.6,302.8,339.6z&#10;&#9;&#9; M322,302.3c-0.7,0-1.4,0.4-1.7,1l-19.2,30.2c-0.6,1-0.2,2.2,0.8,2.8c0.9,0.5,2.1,0.3,2.7-0.6l0,0l19.2-30.2c0.3-0.5,0.4-1,0.3-1.6&#10;&#9;&#9;c-0.1-0.5-0.4-1-0.9-1.3C322.8,302.4,322.4,302.3,322,302.3z"/>
	<path class="st1_chef-49" d="M314.7,347.2c-2.8,0-5.1-2.3-5-5.1c0-0.9,0.3-1.9,0.8-2.7l19.2-30.2c0.7-1.1,1.9-1.9,3.2-2.2&#10;&#9;&#9;c2.7-0.6,5.4,1.1,6,3.8c0.3,1.3,0,2.7-0.7,3.8L319,344.8c-0.7,1.1-1.9,1.9-3.2,2.2C315.5,347.1,315.1,347.2,314.7,347.2z&#10;&#9;&#9; M333.9,309.9c-0.2,0-0.3,0-0.5,0c-0.5,0.1-1,0.4-1.3,0.9L313,341c-0.3,0.5-0.4,1-0.3,1.5c0.2,1.1,1.3,1.8,2.4,1.6c0,0,0.1,0,0.1,0&#10;&#9;&#9;c0.5-0.1,1-0.4,1.3-0.9l0,0l19.2-30.2c0.3-0.5,0.4-1,0.3-1.6C335.7,310.5,334.9,309.9,333.9,309.9L333.9,309.9z"/>
	<path class="st1_chef-49" d="M326.6,354.7c-2.8,0-5-2.3-5-5.1c0-0.9,0.3-1.9,0.8-2.7l19.2-30.2c1.5-2.4,4.6-3.1,7-1.6&#10;&#9;&#9;c1.1,0.7,1.9,1.9,2.2,3.2c0.3,1.3,0,2.7-0.7,3.8l-19.2,30.2c-0.7,1.1-1.9,1.9-3.2,2.2C327.3,354.7,327,354.7,326.6,354.7z&#10;&#9;&#9; M345.8,317.4c-0.2,0-0.3,0-0.5,0c-0.5,0.1-1,0.4-1.3,0.9l-19.2,30.2c-0.6,1-0.3,2.2,0.6,2.8c0.5,0.3,1,0.4,1.6,0.3&#10;&#9;&#9;c0.5-0.1,1-0.4,1.3-0.9l0,0l19.2-30.2c0.3-0.5,0.4-1,0.3-1.6c-0.1-0.5-0.5-1-0.9-1.3C346.6,317.5,346.2,317.4,345.8,317.4z"/>
	<path class="st3_chef-49" d="M247.7,401.1c5.3-5.3,11.2-9.9,17.6-13.9c10.4-6.2,22.3-9.8,27.9-11.2c10.7-2.8,9.7,5.7,4.2,9.4&#10;&#9;&#9;c-3.6,2.3-7.5,4-11.6,5.1c0,0,7.9,5.8,0,23.4s-38.1,16.3-38.1,16.3L247.7,401.1z"/>
	<path class="st1_chef-49" d="M249.3,432c-1,0-1.6,0-1.7,0c-1,0-1.7-0.8-1.7-1.8v-29c0-0.5,0.2-0.9,0.5-1.3c5.4-5.4,11.5-10.2,18-14.2&#10;&#9;&#9;c10.9-6.5,23.5-10.1,28.4-11.4c7-1.8,9.3,0.8,10.1,2.5c1.4,3.1-0.5,7.6-4.4,10.1c-2.9,1.9-6.1,3.4-9.5,4.5&#10;&#9;&#9;c2.1,3.4,4.2,10.5-1.5,23.1C280.2,430.8,256.1,432,249.3,432z M249.5,401.9v26.4c6.4-0.1,28.4-1.3,34.6-15.2&#10;&#9;&#9;c7.1-15.9,0.8-21,0.5-21.2c-0.8-0.6-1-1.8-0.3-2.6c0.3-0.3,0.6-0.6,1-0.7c3.9-1,7.6-2.6,11-4.8c2.5-1.7,3.7-4.3,3.1-5.6&#10;&#9;&#9;c-0.5-1.1-2.8-1.3-5.8-0.5c-4.8,1.2-17,4.8-27.4,11C260.2,392.5,254.6,396.9,249.5,401.9L249.5,401.9z"/>
	<path class="st3_chef-49" d="M211.5,410l2.2-19.6c0.1-1.2,1.2-2.1,2.5-2l5.1,0.6c1.2,0.1,2.1,1.2,2,2.5L221,411c-0.1,1.2-1.2,2.1-2.5,2&#10;&#9;&#9;l-5.1-0.6C212.3,412.3,211.4,411.2,211.5,410z"/>
	<path class="st1_chef-49" d="M217.2,414.6c-0.2,0-0.4,0-0.7,0l-1.5-0.2c-3.2-0.4-5.5-3.3-5.2-6.5l1.8-16c0.4-3.2,3.2-5.5,6.4-5.2&#10;&#9;&#9;c0,0,0,0,0,0l1.5,0.2c3.2,0.4,5.5,3.3,5.2,6.5l-1.8,16C222.7,412.4,220.2,414.6,217.2,414.6z M217.5,390.3c-0.5,0-1,0.2-1.4,0.5&#10;&#9;&#9;c-0.5,0.4-0.8,0.9-0.8,1.5l0,0l-1.8,16c-0.1,1.2,0.7,2.3,1.9,2.5l1.5,0.2c1.2,0.1,2.3-0.8,2.4-2l1.8-16c0.1-1.2-0.7-2.3-2-2.4&#10;&#9;&#9;c0,0,0,0,0,0l-1.5-0.2L217.5,390.3z M213.5,392.1L213.5,392.1z"/>
	<path class="st3_chef-49" d="M202.4,408.9l2.2-19.6c0.1-1.2,1.2-2.1,2.5-2l5.1,0.6c1.2,0.1,2.1,1.2,2,2.5l-2.2,19.6c-0.1,1.2-1.2,2.1-2.5,2&#10;&#9;&#9;l-5.1-0.6C203.1,411.3,202.3,410.2,202.4,408.9z"/>
	<path class="st1_chef-49" d="M208.1,413.6c-0.2,0-0.4,0-0.7,0l-1.5-0.2c-3.2-0.4-5.5-3.3-5.2-6.5l1.8-16c0.4-3.2,3.3-5.5,6.5-5.2l1.5,0.2&#10;&#9;&#9;c3.2,0.4,5.5,3.3,5.2,6.5l-1.8,16C213.6,411.4,211.1,413.6,208.1,413.6L208.1,413.6z M208.4,389.3c-1.1,0-2.1,0.9-2.2,2l0,0&#10;&#9;&#9;l-1.8,16c-0.1,1.2,0.7,2.3,2,2.4c0,0,0,0,0,0l1.5,0.2c1.2,0.1,2.3-0.7,2.4-1.9l1.8-16c0.1-1.2-0.7-2.3-1.9-2.5l-1.5-0.2&#10;&#9;&#9;L208.4,389.3z M204.4,391.1L204.4,391.1z"/>
	<path class="st3_chef-49" d="M193.3,407.9l2.2-19.6c0.1-1.2,1.2-2.1,2.5-2l5.1,0.6c1.2,0.1,2.1,1.2,2,2.5l-2.2,19.6c-0.1,1.2-1.2,2.1-2.5,2&#10;&#9;&#9;l-5.1-0.6C194,410.2,193.2,409.1,193.3,407.9z"/>
	<path class="st1_chef-49" d="M199,412.5c-0.2,0-0.4,0-0.7,0l-1.5-0.2c-3.2-0.4-5.5-3.3-5.2-6.5l1.8-16c0.4-3.2,3.3-5.5,6.5-5.2c0,0,0,0,0,0&#10;&#9;&#9;l1.5,0.2c3.2,0.4,5.5,3.3,5.2,6.5c0,0,0,0,0,0l-1.8,16C204.5,410.3,202,412.5,199,412.5z M199.3,388.3c-0.5,0-1,0.2-1.4,0.5&#10;&#9;&#9;c-0.5,0.4-0.8,0.9-0.8,1.5l0,0l-1.8,16c-0.1,1.2,0.7,2.3,1.9,2.4c0,0,0,0,0,0l1.5,0.2c0.6,0.1,1.2-0.1,1.6-0.5&#10;&#9;&#9;c0.5-0.4,0.8-0.9,0.8-1.5l1.8-16c0.1-1.2-0.7-2.3-1.9-2.4c0,0,0,0-0.1,0l-1.5-0.2L199.3,388.3z M195.3,390L195.3,390z"/>
	<path class="st3_chef-49" d="M184.2,406.9l2.2-19.6c0.1-1.2,1.2-2.1,2.5-2l5.1,0.6c1.2,0.1,2.1,1.2,2,2.5l-2.2,19.6c-0.1,1.2-1.2,2.1-2.5,2&#10;&#9;&#9;l-5.1-0.6C184.9,409.2,184.1,408.1,184.2,406.9z"/>
	<path class="st1_chef-49" d="M189.9,411.5c-0.2,0-0.4,0-0.7,0l-1.5-0.2c-3.2-0.4-5.5-3.3-5.2-6.5l1.8-16c0.2-1.5,0.9-3,2.2-3.9&#10;&#9;&#9;c1.2-1,2.8-1.4,4.3-1.2l1.5,0.2c3.2,0.4,5.5,3.3,5.2,6.5l-1.8,16C195.4,409.3,192.9,411.5,189.9,411.5z M190.2,387.3&#10;&#9;&#9;c-0.5,0-1,0.2-1.4,0.5c-0.5,0.4-0.8,0.9-0.8,1.5l0,0l-1.8,16c-0.1,1.2,0.7,2.3,1.9,2.5l1.5,0.2c1.2,0.1,2.3-0.7,2.4-1.9&#10;&#9;&#9;c0,0,0,0,0,0l1.8-16c0.1-1.2-0.7-2.3-1.9-2.5l-1.5-0.2L190.2,387.3z M186.2,389L186.2,389z"/>
</g>
</svg>